<?xml version="1.0" standalone="no"?><!DOCTYPE svg PUBLIC "-//W3C//DTD SVG 1.1//EN" "http://www.w3.org/Graphics/SVG/1.1/DTD/svg11.dtd"><svg t="1555930904077" class="icon" style="" viewBox="0 0 1024 1024" version="1.1" xmlns="http://www.w3.org/2000/svg" p-id="1351" xmlns:xlink="http://www.w3.org/1999/xlink" width="200" height="200"><defs><style type="text/css"></style></defs><path d="M938.666667 469.333333 896 469.333333 853.333333 384 586.666667 384 682.666667 533.333333 597.333333 533.333333 458.666667 384 170.666667 384C147.2 384 85.333333 364.8 85.333333 341.333333 85.333333 317.866667 149.333333 234.666667 234.666667 234.666667 320 234.666667 327.253333 277.333333 384 298.666667L896 298.666667C919.466667 298.666667 938.666667 317.866667 938.666667 341.333333L938.666667 384 938.666667 469.333333M458.666667 277.333333 597.333333 128 682.666667 128 586.666667 277.333333 458.666667 277.333333M768 469.333333 768 405.333333 842.666667 405.333333 810.666667 469.333333 768 469.333333M128 810.666667C104.533333 810.666667 85.333333 791.466667 85.333333 768 85.333333 744.533333 104.533333 725.333333 128 725.333333 222.293333 725.333333 298.666667 801.706667 298.666667 896 298.666667 919.466667 279.466667 938.666667 256 938.666667 232.533333 938.666667 213.333333 919.466667 213.333333 896 213.333333 849.066667 174.933333 810.666667 128 810.666667M469.333333 896C469.333333 919.466667 450.133333 938.666667 426.666667 938.666667 403.2 938.666667 384 919.466667 384 896 384 754.773333 269.226667 640 128 640 104.533333 640 85.333333 620.8 85.333333 597.333333 85.333333 573.866667 104.533333 554.666667 128 554.666667 316.586667 554.666667 469.333333 707.413333 469.333333 896Z" p-id="1352"></path></svg>